<svg xmlns="http://www.w3.org/2000/svg" width="94.72" height="14" viewBox="-8641.359 2420 94.72 14"><g data-name="CompositeLayer"><path d="m-8631.724 2424.61 5.085.74-3.68 3.585.87 5.065-4.55-2.39-4.55 2.39.87-5.065-3.68-3.59 5.085-.735 2.275-4.61 2.275 4.61ZM-8611.724 2424.61l5.085.74-3.68 3.585.87 5.065-4.55-2.39-4.55 2.39.87-5.065-3.68-3.59 5.085-.735 2.275-4.61 2.275 4.61ZM-8591.724 2424.61l5.085.74-3.68 3.585.87 5.065-4.55-2.39-4.55 2.39.87-5.065-3.68-3.59 5.085-.735 2.275-4.61 2.275 4.61ZM-8571.724 2424.61l5.085.74-3.68 3.585.87 5.065-4.55-2.39-4.55 2.39.87-5.065-3.68-3.59 5.085-.735 2.275-4.61 2.275 4.61ZM-8551.724 2424.61l5.085.74-3.68 3.585.87 5.065-4.55-2.39-4.55 2.39.87-5.065-3.68-3.59 5.085-.735 2.275-4.61 2.275 4.61Z" fill="#f94d1c" fill-rule="evenodd" data-name="Vector"/></g></svg>